<?xml version="1.0" encoding="utf-8"?>
<!-- Generator: Adobe Illustrator 19.2.1, SVG Export Plug-In . SVG Version: 6.00 Build 0)  -->
<svg version="1.1" id="Ebene_1" xmlns="http://www.w3.org/2000/svg" xmlns:xlink="http://www.w3.org/1999/xlink" x="0px" y="0px"
	 viewBox="0 0 148.7 113.4" style="enable-background:new 0 0 148.7 113.4;" xml:space="preserve">
<path d="M91.1,58.9c-1,3.6-2,7.3-2.9,11.1l11.6,12L91.1,58.9z M77.7,107.4c6.3-34.8,15-71.3,22.7-95.9l-26-5.7l-26,5.7
	c7.7,24.7,16.4,61.1,22.7,95.9h3.3H77.7z M134.7,36.4c-2.7-8.8-5.3-17-7.9-24.1h-21.2c-4.4,12.5-9.2,27.3-13.8,44.1L134.7,36.4z
	 M56.8,56.4C52.2,39.5,47.4,24.7,43,12.3H21.8c-2.5,7.1-5.2,15.3-7.9,24.1L56.8,56.4z M57.5,58.9c1,3.6,2,7.3,2.9,11.1L48.9,82
	L57.5,58.9z"/>
</svg>
